<?xml version="1.0" encoding="utf-8"?>
<!-- Generator: Adobe Illustrator 23.0.0, SVG Export Plug-In . SVG Version: 6.00 Build 0)  -->
<svg version="1.1" xmlns="http://www.w3.org/2000/svg" xmlns:xlink="http://www.w3.org/1999/xlink" x="0px" y="0px"
	 viewBox="0 0 36 34" style="enable-background:new 0 0 36 34;" xml:space="preserve">
<style type="text/css">
	.st0{fill:none;}
	.st1{fill:#F4F4F4;}
</style>
<g id="bg">
	<g>
		<polygon class="st0" points="332,332 0,332 0,-1 332,0 		"/>
		<rect x="331" y="331" class="st1" width="1" height="1"/>
		<rect y="331" class="st1" width="1" height="1"/>
		<rect y="-1" class="st1" width="1" height="1"/>
		<rect x="331" class="st1" width="1" height="1"/>
	</g>
</g>
<g id="grid">
	<g>
		<polygon class="st0" points="48,0 0,-1 0,48 48,48 		"/>
	</g>
</g>
<g id="icons">
	<g>
		<path d="M34.6,16.47C34.85,16.03,35,15.54,35,15c0-1.65-1.35-3-3-3c-0.55,0-1,0.45-1,1s0.45,1,1,1c0.55,0,1,0.45,1,1s-0.45,1-1,1
			H17c-0.55,0-1,0.45-1,1s0.45,1,1,1h16c0.55,0,1,0.45,1,1v2c0,0.55-0.45,1-1,1H3c-0.55,0-1-0.45-1-1v-2c0-0.55,0.45-1,1-1h8
			c0.55,0,1-0.45,1-1s-0.45-1-1-1H5c-0.55,0-1-0.45-1-1s0.45-1,1-1c0.55,0,1-0.45,1-1s-0.45-1-1-1c-1.65,0-3,1.35-3,3
			c0,0.39,0.08,0.77,0.22,1.12C0.95,16.46,0,17.62,0,19v2c0,1.38,0.95,2.54,2.22,2.88C2.08,24.23,2,24.61,2,25
			c0,0.35,0.07,0.69,0.18,1H2c-0.55,0-1,0.45-1,1v4c0,1.65,1.35,3,3,3h28c1.65,0,3-1.35,3-3v-4c0-0.55-0.45-1-1-1h-0.18
			c0.11-0.31,0.18-0.65,0.18-1c0-0.39-0.08-0.77-0.22-1.12C35.05,23.54,36,22.38,36,21v-2C36,17.93,35.44,17,34.6,16.47z M5,24h26
			c0.55,0,1,0.45,1,1s-0.45,1-1,1H5c-0.55,0-1-0.45-1-1S4.45,24,5,24z M33,31c0,0.55-0.45,1-1,1H4c-0.55,0-1-0.45-1-1v-3h30V31z"/>
		<ellipse cx="14" cy="9.5" rx="1" ry="0.5"/>
		<ellipse cx="10" cy="7" rx="1" ry="0.5"/>
		<ellipse cx="18" cy="7" rx="1" ry="0.5"/>
		<ellipse cx="14" cy="4" rx="1" ry="0.5"/>
		<path d="M25,0h-7h-7C5.49,0,1,4.49,1,10v1.5C1,12.88,2.35,14,4,14h14h14c1.65,0,3-1.12,3-2.5V10C35,4.49,30.51,0,25,0z M33,11.5
			c0,0.17-0.39,0.5-1,0.5H18H4c-0.61,0-1-0.33-1-0.5V10c0-4.41,3.59-8,8-8h7h7c4.41,0,8,3.59,8,8V11.5z"/>
		<ellipse cx="22" cy="9.5" rx="1" ry="0.5"/>
		<ellipse cx="26" cy="7" rx="1" ry="0.5"/>
		<ellipse cx="22" cy="4" rx="1" ry="0.5"/>
		<path d="M14,21c-0.26,0-0.51-0.1-0.71-0.29l-7-7c-0.39-0.39-0.39-1.02,0-1.41c0.39-0.39,1.02-0.39,1.41,0L14,18.59l6.29-6.29
			c0.39-0.39,1.02-0.39,1.41,0c0.39,0.39,0.39,1.02,0,1.41l-7,7C14.51,20.9,14.26,21,14,21z"/>
	</g>
</g>
</svg>
